<?xml version="1.0" encoding="UTF-8" standalone="no"?><!-- Generator: Gravit.io --><svg xmlns="http://www.w3.org/2000/svg" xmlns:xlink="http://www.w3.org/1999/xlink" style="isolation:isolate" viewBox="0 0 75 85" width="75pt" height="85pt"><line x1="27.095" y1="22.427" x2="31.409" y2="30.167" vector-effect="non-scaling-stroke" stroke-width="0.45" stroke="rgb(93,93,93)" stroke-linejoin="miter" stroke-linecap="square" stroke-miterlimit="3"/><line x1="43.971" y1="30.167" x2="47.905" y2="22.427" vector-effect="non-scaling-stroke" stroke-width="0.45" stroke="rgb(93,93,93)" stroke-linejoin="miter" stroke-linecap="square" stroke-miterlimit="3"/><line x1="27.095" y1="22.427" x2="47.905" y2="22.427" vector-effect="non-scaling-stroke" stroke-width="0.45" stroke="rgb(93,93,93)" stroke-linejoin="miter" stroke-linecap="square" stroke-miterlimit="3"/><line x1="27.095" y1="22.427" x2="31.409" y2="18.62" vector-effect="non-scaling-stroke" stroke-width="0.45" stroke="rgb(93,93,93)" stroke-linejoin="miter" stroke-linecap="square" stroke-miterlimit="3"/><line x1="47.905" y1="22.427" x2="43.971" y2="18.62" vector-effect="non-scaling-stroke" stroke-width="0.45" stroke="rgb(93,93,93)" stroke-linejoin="miter" stroke-linecap="square" stroke-miterlimit="3"/><line x1="31.409" y1="18.62" x2="43.971" y2="18.62" vector-effect="non-scaling-stroke" stroke-width="0.45" stroke="rgb(93,93,93)" stroke-linejoin="miter" stroke-linecap="square" stroke-miterlimit="3"/><line x1="31.462" y1="18.783" x2="37.707" y2="22.427" vector-effect="non-scaling-stroke" stroke-width="0.45" stroke="rgb(93,93,93)" stroke-linejoin="miter" stroke-linecap="square" stroke-miterlimit="3"/><line x1="37.707" y1="22.427" x2="43.971" y2="18.62" vector-effect="non-scaling-stroke" stroke-width="0.45" stroke="rgb(93,93,93)" stroke-linejoin="miter" stroke-linecap="square" stroke-miterlimit="3"/><line x1="20.103" y1="13.046" x2="26.631" y2="18.62" vector-effect="non-scaling-stroke" stroke-width="0.45" stroke="rgb(93,93,93)" stroke-linejoin="miter" stroke-linecap="square" stroke-miterlimit="3"/><line x1="54.291" y1="13.046" x2="48.531" y2="18.62" vector-effect="non-scaling-stroke" stroke-width="0.45" stroke="rgb(93,93,93)" stroke-linejoin="miter" stroke-linecap="square" stroke-miterlimit="3"/><line x1="37.5" y1="16.14" x2="37.5" y2="7.743" vector-effect="non-scaling-stroke" stroke-width="0.45" stroke="rgb(93,93,93)" stroke-linejoin="miter" stroke-linecap="square" stroke-miterlimit="3"/><line x1="29.061" y1="11.499" x2="31.409" y2="16.14" vector-effect="non-scaling-stroke" stroke-width="0.45" stroke="rgb(93,93,93)" stroke-linejoin="miter" stroke-linecap="square" stroke-miterlimit="3"/><line x1="46.297" y1="11.499" x2="43.971" y2="16.14" vector-effect="non-scaling-stroke" stroke-width="0.45" stroke="rgb(93,93,93)" stroke-linejoin="miter" stroke-linecap="square" stroke-miterlimit="3"/><ellipse vector-effect="non-scaling-stroke" cx="37.499999999999986" cy="53.268314088320224" rx="23.86356002159033" ry="23.98884897350731" fill="none" stroke-width="0.45" stroke="rgb(93,93,93)" stroke-linejoin="miter" stroke-linecap="square" stroke-miterlimit="3"/><path d=" M 43.637 39.917 C 43.359 40.217 42.622 43.384 42.502 43.88 C 41.766 47.375 41.662 52.484 41.534 52.723 C 41.267 55.629 39.761 58.432 38.479 59.389 C 37.609 60.037 36.961 59.983 36.581 59.787 C 35.79 59.403 35.775 58.675 35.572 57.902 C 35.437 57.383 35.399 56.963 35.347 55.401 C 35.316 54.365 35.253 53.151 35.084 52.818 C 35.016 52.592 34.739 52.325 34.384 52.299 C 34.064 52.272 33.417 52.818 32.958 53.734 C 32.681 54.282 32.313 54.988 32.14 55.311 C 31.967 55.641 31.524 56.775 31.412 57.076 C 31.339 57.272 31.281 57.418 31.233 57.497 C 31.259 57.473 31.039 57.123 31.051 54.552 C 31.081 50.888 30.98 50.353 30.38 49.79 C 30.198 49.654 29.98 49.621 29.699 49.649 C 29.336 49.681 29.23 49.762 28.896 50.037 C 28.276 50.605 28.304 50.57 27.912 51.342 C 27.76 51.666 27.582 52.232 27.544 52.299 C 27.499 52.375 26.951 54.042 26.568 55.326 C 26.478 55.611 26.365 55.942 26.305 56.054 C 26.27 56.177 26.051 56.808 25.982 56.978 C 25.932 57.128 25.411 58.566 24.705 59.374 C 24.576 58.859 24.488 56.017 24.766 53.599 C 24.938 52.142 25.11 51.481 25.261 51.436 C 25.677 51.208 25.809 50.753 25.779 50.43 C 25.712 49.716 25.103 49.296 24.503 49.551 C 24.127 49.709 23.872 50.279 23.827 51.068 C 23.812 51.383 23.759 51.849 23.714 52.097 C 23.669 52.345 23.534 53.741 23.489 54.199 C 23.354 55.506 23.293 59.828 23.511 60.703 C 23.665 61.186 24.07 61.12 24.202 61.101 C 24.366 61.054 24.51 61.078 24.953 60.718 C 26.031 59.975 26.973 58.044 27.214 57.181 C 27.319 56.783 27.507 55.964 27.627 55.363 C 27.747 54.763 27.905 54.034 27.987 53.749 C 28.07 53.456 28.19 53.005 28.265 52.735 C 28.748 50.813 29.714 50.482 29.804 50.482 C 29.931 50.506 30.022 50.85 30.022 51.308 C 30.022 51.549 30.057 58.508 30.075 58.833 Q 30.188 59.45 30.758 59.509 C 31.267 59.461 31.321 58.547 32.283 56.527 C 32.613 55.821 33.567 53.896 33.918 53.436 C 34.312 52.987 34.46 53.133 34.49 54.049 C 34.498 54.342 34.833 57.883 34.953 58.584 C 35.205 59.669 35.332 59.647 35.572 59.954 C 35.846 60.249 36.5 60.787 37.795 60.583 C 38.32 60.515 39.387 60.19 40.926 57.909 C 40.994 57.834 41.955 56.445 42.06 56.25 C 41.928 58.163 42.142 59.569 42.33 59.772 C 42.495 59.952 42.653 59.974 43.058 59.899 C 43.443 59.757 43.501 59.298 43.404 58.735 C 43.344 58.39 43.291 58.022 43.291 57.932 C 43.256 56.027 45.087 53.602 45.132 53.497 C 46.737 51.86 46.959 53.186 47.132 53.599 C 46.216 54.172 45.213 55.574 44.687 56.641 C 44.34 57.533 44.201 58.437 44.172 59.113 C 44.255 59.625 44.247 60.118 44.841 60.583 C 45.434 60.942 45.821 61.028 46.424 60.876 C 47.248 60.513 48.849 59.207 48.635 55.846 C 48.484 54.336 48.449 54.576 48.218 53.864 C 48.23 53.841 50.151 52.053 50.496 51.828 C 50.842 51.602 51 51.471 51.173 51.381 C 51.429 51.253 51.41 50.306 50.865 50.709 Q 50.734 50.842 47.992 53.114 C 47.857 52.769 47.648 52.385 47.265 51.942 C 46.524 51.131 45.425 51.89 45.132 52.198 C 44.485 52.751 43.306 54.635 43.224 54.98 C 42.942 55.533 43.013 55.236 42.968 54.86 C 42.811 53.621 42.856 50.458 43.224 48.481 C 43.592 44.893 44.056 42.597 44.643 40.074 C 44.433 39.489 44.095 39.436 43.637 39.917 Z  M 46.556 59.787 C 46.143 60.33 45.054 60.167 44.929 59.584 C 44.524 58.109 45.856 55.663 47.357 54.377 C 47.772 54.712 47.832 58.357 46.556 59.787 Z " fill="rgb(200,161,161)"/></svg>